<?xml version="1.0" standalone="no"?>
<!DOCTYPE svg PUBLIC "-//W3C//DTD SVG 1.1//EN"
"http://www.w3.org/Graphics/SVG/1.1/DTD/svg11.dtd">

<svg width="325" height="297" view_box="0 0 325 297"
xmlns="http://www.w3.org/2000/svg"
xmlns:link="http://www.w3.org/1999/xlink">\n\n<desc>Généré par Mocodo 2.3.7 le Mon, 27 Dec 2021 06:09:53</desc>

<rect id="frame" x="0" y="0" width="325" height="297" fill="#f7f7f7" stroke="none" stroke-width="0"/>

<!-- Association HAS -->
<line x1="60" y1="195" x2="190" y2="195" stroke="#8073ac" stroke-width="2"/>
<text x="116" y="212.0" fill="#b35806" font-family="Verdana" font-size="12">1,N</text>
<line x1="279" y1="195" x2="190" y2="195" stroke="#8073ac" stroke-width="2"/>
<text x="215" y="212.0" fill="#b35806" font-family="Verdana" font-size="12">1,N</text>
<g id="association-HAS">
	<path d="M 196 170 a 14 14 90 0 1 14 14 V 195 h -40 V 184 a 14 14 90 0 1 14 -14" fill="#b2abd2" stroke="#b2abd2" stroke-width="0"/>
	<path d="M 210 195.0 v 11 a 14 14 90 0 1 -14 14 H 184 a 14 14 90 0 1 -14 -14 V 195.0 H 40" fill="#d8daeb" stroke="#d8daeb" stroke-width="0"/>
	<rect x="170" y="170" width="40" height="50" fill="none" rx="14" stroke="#8073ac" stroke-width="2"/>
	<line x1="170" y1="195" x2="210" y2="195" stroke="#8073ac" stroke-width="1"/>
	<text x="177" y="187.7" fill="#000000" font-family="Verdana" font-size="12">HAS</text>
</g>

<!-- Association BELONGS TO -->
<line x1="60" y1="195" x2="60" y2="43" stroke="#8073ac" stroke-width="2"/>
<text x="65.0" y="94" fill="#b35806" font-family="Verdana" font-size="12">1,1</text>
<line x1="190" y1="43" x2="60" y2="43" stroke="#8073ac" stroke-width="2"/>
<text x="114" y="60.0" fill="#b35806" font-family="Verdana" font-size="12">1,1</text>
<g id="association-BELONGS TO">
	<path d="M 94 18 a 14 14 90 0 1 14 14 V 43 h -96 V 32 a 14 14 90 0 1 14 -14" fill="#b2abd2" stroke="#b2abd2" stroke-width="0"/>
	<path d="M 108 43.0 v 11 a 14 14 90 0 1 -14 14 H 26 a 14 14 90 0 1 -14 -14 V 43.0 H 96" fill="#d8daeb" stroke="#d8daeb" stroke-width="0"/>
	<rect x="12" y="18" width="96" height="50" fill="none" rx="14" stroke="#8073ac" stroke-width="2"/>
	<line x1="12" y1="43" x2="108" y2="43" stroke="#8073ac" stroke-width="1"/>
	<text x="19" y="35.7" fill="#000000" font-family="Verdana" font-size="12">BELONGS TO</text>
</g>

<!-- Entity FOOTPRINT -->
<g id="entity-FOOTPRINT">
	<g id="frame-FOOTPRINT">
		<rect x="140" y="9" width="100" height="25" fill="#fdb863" stroke="#fdb863" stroke-width="0"/>
		<rect x="140" y="34.0" width="100" height="43" fill="#fee0b6" stroke="#fee0b6" stroke-width="0"/>
		<rect x="140" y="9" width="100" height="68" fill="none" stroke="#e08214" stroke-width="2"/>
		<line x1="140" y1="34" x2="240" y2="34" stroke="#e08214" stroke-width="1"/>
	</g>
	<text x="154" y="26.7" fill="#000000" font-family="Verdana" font-size="12">FOOTPRINT</text>
	<text x="145" y="51.8" fill="#000000" font-family="Verdana" font-size="12">footprint_code</text>
	<line x1="145" y1="54" x2="234" y2="54" stroke="#000000" stroke-width="1"/>
	<text x="145" y="68.8" fill="#000000" font-family="Verdana" font-size="12">number</text>
</g>

<!-- Entity TYPE -->
<g id="entity-TYPE">
	<g id="frame-TYPE">
		<rect x="242" y="153" width="74" height="25" fill="#fdb863" stroke="#fdb863" stroke-width="0"/>
		<rect x="242" y="178.0" width="74" height="59" fill="#fee0b6" stroke="#fee0b6" stroke-width="0"/>
		<rect x="242" y="153" width="74" height="84" fill="none" stroke="#e08214" stroke-width="2"/>
		<line x1="242" y1="178" x2="316" y2="178" stroke="#e08214" stroke-width="1"/>
	</g>
	<text x="263" y="170.7" fill="#000000" font-family="Verdana" font-size="12">TYPE</text>
	<text x="247" y="195.8" fill="#000000" font-family="Verdana" font-size="12">type_code</text>
	<line x1="247" y1="198" x2="310" y2="198" stroke="#000000" stroke-width="1"/>
	<text x="247" y="212.8" fill="#000000" font-family="Verdana" font-size="12">name</text>
	<text x="247" y="229.8" fill="#000000" font-family="Verdana" font-size="12">color</text>
</g>

<!-- Entity POKEMON -->
<g id="entity-POKEMON">
	<g id="frame-POKEMON">
		<rect x="9" y="102" width="102" height="25" fill="#fdb863" stroke="#fdb863" stroke-width="0"/>
		<rect x="9" y="127.0" width="102" height="161" fill="#fee0b6" stroke="#fee0b6" stroke-width="0"/>
		<rect x="9" y="102" width="102" height="186" fill="none" stroke="#e08214" stroke-width="2"/>
		<line x1="9" y1="127" x2="111" y2="127" stroke="#e08214" stroke-width="1"/>
	</g>
	<text x="29" y="119.7" fill="#000000" font-family="Verdana" font-size="12">POKEMON</text>
	<text x="14" y="144.7" fill="#000000" font-family="Verdana" font-size="12">pokemon_code</text>
	<line x1="14" y1="147" x2="106" y2="147" stroke="#000000" stroke-width="1"/>
	<text x="14" y="161.7" fill="#000000" font-family="Verdana" font-size="12">nom</text>
	<text x="14" y="178.7" fill="#000000" font-family="Verdana" font-size="12">pv</text>
	<text x="14" y="195.8" fill="#000000" font-family="Verdana" font-size="12">attaque</text>
	<text x="14" y="212.8" fill="#000000" font-family="Verdana" font-size="12">defense</text>
	<text x="14" y="229.8" fill="#000000" font-family="Verdana" font-size="12">attaque_spe</text>
	<text x="14" y="246.8" fill="#000000" font-family="Verdana" font-size="12">defense_spe</text>
	<text x="14" y="263.8" fill="#000000" font-family="Verdana" font-size="12">vitesse</text>
	<text x="14" y="280.8" fill="#000000" font-family="Verdana" font-size="12">numero</text>
</g>
</svg>